<svg width="207" height="275" viewBox="0 0 207 275" fill="none" xmlns="http://www.w3.org/2000/svg">
<path d="M34.3302 0.168056C15.3675 0.183387 0.0232897 15.5294 0.0225169 34.537L0.0877977 240.531C0.117852 259.485 15.4518 274.888 34.468 274.903L171.844 274.91C190.806 274.895 206.204 259.58 206.205 240.572L206.14 34.5782C206.11 15.624 190.691 0.243871 171.729 0.259202L34.3302 0.168056ZM93.9631 74.1082C98.9881 69.1072 107.115 69.1006 112.206 74.1047C117.298 79.1088 124.363 86.2489 124.363 86.2489L158.743 120.621C170.48 132.381 170.479 151.389 158.723 163.111C146.967 174.834 127.951 174.818 116.214 163.058L112.251 159.062C112.068 158.885 111.885 158.708 111.756 158.562L111.751 180.415L120.375 180.411C125.127 180.449 128.992 184.247 128.957 188.996C128.922 193.746 125.127 197.606 120.375 197.568L86.046 197.539C81.294 197.501 77.4297 193.704 77.4643 188.954C77.4989 184.204 81.2949 180.344 86.0469 180.383L94.6711 180.378L94.6758 158.525C94.4991 158.708 94.3532 158.837 94.1764 159.02L90.1811 162.978C78.4252 174.701 59.4091 174.685 47.6722 162.926C35.9354 151.166 35.9361 132.158 47.692 120.436L82.0531 86.0977L94.1933 73.9564L93.9631 74.1082Z" fill="url(#paint0_linear_6_23)"/>
<defs>
<linearGradient id="paint0_linear_6_23" x1="12.7809" y1="-88.9144" x2="193.284" y2="363.854" gradientUnits="userSpaceOnUse">
<stop stop-color="#56EAED"/>
<stop offset="1" stop-color="#299AD0"/>
</linearGradient>
</defs>
</svg>
