<svg width="143" height="50" viewBox="0 0 143 50" fill="none" xmlns="http://www.w3.org/2000/svg">
<path d="M67.1094 20.7695L63.6426 32H59.9609L65.1855 17.7812H67.5195L67.1094 20.7695ZM69.9805 32L66.5039 20.7695L66.0547 17.7812H68.418L73.6719 32H69.9805ZM69.8438 26.6973V29.3438H62.5488V26.6973H69.8438ZM81.2012 21.4336H84.1895V31.5898C84.1895 32.5664 83.9648 33.3932 83.5156 34.0703C83.0664 34.7539 82.4382 35.2715 81.6309 35.623C80.8301 35.9811 79.8926 36.1602 78.8184 36.1602C78.3431 36.1602 77.8581 36.0983 77.3633 35.9746C76.8685 35.8574 76.4062 35.6816 75.9766 35.4473C75.5469 35.2129 75.1855 34.9232 74.8926 34.5781L76.2695 32.6445C76.5365 32.944 76.8717 33.1979 77.2754 33.4062C77.679 33.6211 78.1543 33.7285 78.7012 33.7285C79.1764 33.7285 79.5736 33.6439 79.8926 33.4746C80.2181 33.3053 80.4655 33.0579 80.6348 32.7324C80.804 32.4134 80.8887 32.026 80.8887 31.5703V23.9336L81.2012 21.4336ZM74.1797 26.8438V26.6387C74.1797 25.8379 74.2773 25.1087 74.4727 24.4512C74.6745 23.7871 74.9609 23.2174 75.332 22.7422C75.7096 22.2604 76.1654 21.8893 76.6992 21.6289C77.2331 21.3685 77.8353 21.2383 78.5059 21.2383C79.2285 21.2383 79.821 21.3783 80.2832 21.6582C80.752 21.9316 81.1263 22.3158 81.4062 22.8105C81.6927 23.3053 81.9141 23.8848 82.0703 24.5488C82.2331 25.2064 82.3698 25.916 82.4805 26.6777V26.9219C82.3698 27.638 82.2168 28.3151 82.0215 28.9531C81.8327 29.5846 81.5853 30.1445 81.2793 30.6328C80.9733 31.1211 80.5892 31.5052 80.127 31.7852C79.6712 32.0586 79.1243 32.1953 78.4863 32.1953C77.8223 32.1953 77.2233 32.0618 76.6895 31.7949C76.1621 31.528 75.7096 31.1536 75.332 30.6719C74.9609 30.1901 74.6745 29.6237 74.4727 28.9727C74.2773 28.3216 74.1797 27.612 74.1797 26.8438ZM77.4707 26.6387V26.8438C77.4707 27.2409 77.5065 27.6087 77.5781 27.9473C77.6562 28.2858 77.7734 28.5853 77.9297 28.8457C78.0859 29.0996 78.278 29.2982 78.5059 29.4414C78.7402 29.5846 79.0137 29.6562 79.3262 29.6562C79.8014 29.6562 80.1855 29.5553 80.4785 29.3535C80.7715 29.1517 80.9831 28.8652 81.1133 28.4941C81.2435 28.123 81.2988 27.6868 81.2793 27.1855V26.4141C81.2923 25.9844 81.263 25.6068 81.1914 25.2812C81.1198 24.9492 81.0059 24.6725 80.8496 24.4512C80.6999 24.2298 80.498 24.0638 80.2441 23.9531C79.9967 23.8359 79.6973 23.7773 79.3457 23.7773C79.0397 23.7773 78.7695 23.849 78.5352 23.9922C78.3008 24.1354 78.1055 24.3372 77.9492 24.5977C77.793 24.8516 77.6725 25.1543 77.5879 25.5059C77.5098 25.8509 77.4707 26.2285 77.4707 26.6387ZM89.5605 21.4336V32H86.2598V21.4336H89.5605ZM86.0645 18.709C86.0645 18.2402 86.2337 17.8561 86.5723 17.5566C86.9108 17.2572 87.3503 17.1074 87.8906 17.1074C88.431 17.1074 88.8704 17.2572 89.209 17.5566C89.5475 17.8561 89.7168 18.2402 89.7168 18.709C89.7168 19.1777 89.5475 19.5618 89.209 19.8613C88.8704 20.1608 88.431 20.3105 87.8906 20.3105C87.3503 20.3105 86.9108 20.1608 86.5723 19.8613C86.2337 19.5618 86.0645 19.1777 86.0645 18.709ZM95.0684 17V32H91.7676V17H95.0684ZM102.217 32.1953C101.357 32.1953 100.589 32.0618 99.9121 31.7949C99.235 31.5215 98.6621 31.1471 98.1934 30.6719C97.7311 30.1966 97.3763 29.6497 97.1289 29.0312C96.888 28.4128 96.7676 27.7585 96.7676 27.0684V26.6973C96.7676 25.9225 96.875 25.2064 97.0898 24.5488C97.3047 23.8848 97.6237 23.3053 98.0469 22.8105C98.4701 22.3158 99.0007 21.9316 99.6387 21.6582C100.277 21.3783 101.019 21.2383 101.865 21.2383C102.614 21.2383 103.285 21.3587 103.877 21.5996C104.469 21.8405 104.971 22.1855 105.381 22.6348C105.798 23.084 106.113 23.6276 106.328 24.2656C106.549 24.9036 106.66 25.6198 106.66 26.4141V27.752H98.0273V25.6914H103.447V25.4375C103.454 25.0859 103.392 24.7865 103.262 24.5391C103.138 24.2917 102.956 24.1029 102.715 23.9727C102.474 23.8424 102.181 23.7773 101.836 23.7773C101.478 23.7773 101.182 23.8555 100.947 24.0117C100.719 24.168 100.54 24.3828 100.41 24.6562C100.286 24.9232 100.199 25.2324 100.146 25.584C100.094 25.9355 100.068 26.3066 100.068 26.6973V27.0684C100.068 27.459 100.12 27.8138 100.225 28.1328C100.335 28.4518 100.492 28.7253 100.693 28.9531C100.902 29.1745 101.149 29.347 101.436 29.4707C101.729 29.5944 102.061 29.6562 102.432 29.6562C102.881 29.6562 103.324 29.5716 103.76 29.4023C104.196 29.2331 104.57 28.9531 104.883 28.5625L106.377 30.3398C106.162 30.6458 105.856 30.9421 105.459 31.2285C105.068 31.515 104.6 31.7493 104.053 31.9316C103.506 32.1074 102.894 32.1953 102.217 32.1953ZM114.18 20.7695L110.713 32H107.031L112.256 17.7812H114.59L114.18 20.7695ZM117.051 32L113.574 20.7695L113.125 17.7812H115.488L120.742 32H117.051ZM116.914 26.6973V29.3438H109.619V26.6973H116.914ZM126.094 29.6562C126.4 29.6562 126.66 29.6009 126.875 29.4902C127.096 29.373 127.262 29.2103 127.373 29.002C127.49 28.7871 127.546 28.5299 127.539 28.2305H130.635C130.641 29.0247 130.446 29.7214 130.049 30.3203C129.658 30.9128 129.124 31.375 128.447 31.707C127.777 32.0326 127.018 32.1953 126.172 32.1953C125.345 32.1953 124.622 32.0618 124.004 31.7949C123.385 31.5215 122.868 31.1439 122.451 30.6621C122.041 30.1738 121.732 29.6042 121.523 28.9531C121.322 28.3021 121.221 27.5957 121.221 26.834V26.6094C121.221 25.8477 121.322 25.1413 121.523 24.4902C121.732 23.8327 122.041 23.263 122.451 22.7812C122.868 22.293 123.382 21.9154 123.994 21.6484C124.613 21.375 125.332 21.2383 126.152 21.2383C127.031 21.2383 127.806 21.4043 128.477 21.7363C129.154 22.0684 129.684 22.5501 130.068 23.1816C130.452 23.8132 130.641 24.5781 130.635 25.4766H127.539C127.546 25.1576 127.497 24.8711 127.393 24.6172C127.288 24.3633 127.126 24.1615 126.904 24.0117C126.689 23.8555 126.413 23.7773 126.074 23.7773C125.736 23.7773 125.462 23.8522 125.254 24.002C125.046 24.1517 124.886 24.36 124.775 24.627C124.671 24.8874 124.6 25.1868 124.561 25.5254C124.528 25.8639 124.512 26.2253 124.512 26.6094V26.834C124.512 27.2246 124.528 27.5924 124.561 27.9375C124.6 28.276 124.674 28.5755 124.785 28.8359C124.896 29.0898 125.055 29.2917 125.264 29.4414C125.472 29.5846 125.749 29.6562 126.094 29.6562ZM137.158 32.1953C136.299 32.1953 135.531 32.0618 134.854 31.7949C134.176 31.5215 133.604 31.1471 133.135 30.6719C132.673 30.1966 132.318 29.6497 132.07 29.0312C131.829 28.4128 131.709 27.7585 131.709 27.0684V26.6973C131.709 25.9225 131.816 25.2064 132.031 24.5488C132.246 23.8848 132.565 23.3053 132.988 22.8105C133.411 22.3158 133.942 21.9316 134.58 21.6582C135.218 21.3783 135.96 21.2383 136.807 21.2383C137.555 21.2383 138.226 21.3587 138.818 21.5996C139.411 21.8405 139.912 22.1855 140.322 22.6348C140.739 23.084 141.055 23.6276 141.27 24.2656C141.491 24.9036 141.602 25.6198 141.602 26.4141V27.752H132.969V25.6914H138.389V25.4375C138.395 25.0859 138.333 24.7865 138.203 24.5391C138.079 24.2917 137.897 24.1029 137.656 23.9727C137.415 23.8424 137.122 23.7773 136.777 23.7773C136.419 23.7773 136.123 23.8555 135.889 24.0117C135.661 24.168 135.482 24.3828 135.352 24.6562C135.228 24.9232 135.14 25.2324 135.088 25.584C135.036 25.9355 135.01 26.3066 135.01 26.6973V27.0684C135.01 27.459 135.062 27.8138 135.166 28.1328C135.277 28.4518 135.433 28.7253 135.635 28.9531C135.843 29.1745 136.09 29.347 136.377 29.4707C136.67 29.5944 137.002 29.6562 137.373 29.6562C137.822 29.6562 138.265 29.5716 138.701 29.4023C139.137 29.2331 139.512 28.9531 139.824 28.5625L141.318 30.3398C141.104 30.6458 140.798 30.9421 140.4 31.2285C140.01 31.515 139.541 31.7493 138.994 31.9316C138.447 32.1074 137.835 32.1953 137.158 32.1953Z" fill="#2DA0D2"/>
<g clip-path="url(#clip0_7_3206)">
<path d="M0 9.76562L0 40.2344C0 45.6278 4.37222 50 9.76562 50H40.2344C45.6278 50 50 45.6278 50 40.2344V9.76562C50 4.37222 45.6278 0 40.2344 0H9.76563C4.37222 0 0 4.37222 0 9.76562Z" fill="url(#paint0_linear_7_3206)"/>
<g filter="url(#filter0_d_7_3206)">
<path d="M9.86196 15.6605C8.13976 16.3412 7.29545 18.285 7.97625 20.0118L15.3611 38.7239C16.0427 40.4448 17.9876 41.2949 19.7157 40.6151L32.1965 35.6948C33.9187 35.0142 34.7689 33.0712 34.0881 31.3444L26.7033 12.6323C26.0217 10.9114 24.07 10.0664 22.3478 10.7471L9.86196 15.6605ZM17.9282 20.2418C18.2055 19.6075 18.9436 19.3158 19.5854 19.588C20.2272 19.8603 21.1248 20.2559 21.1248 20.2559L25.4795 22.1471C26.967 22.795 27.6478 24.5218 26.9997 26.0079C26.3516 27.494 24.6235 28.1738 23.1359 27.5258L22.6327 27.3047C22.6098 27.2952 22.5868 27.2857 22.5698 27.2771L23.3522 29.2626L24.1356 28.9533C24.5687 28.7865 25.0557 28.9931 25.2227 29.4258C25.3897 29.8586 25.1831 30.3452 24.75 30.512L21.6303 31.7391C21.1972 31.9058 20.7101 31.6992 20.5431 31.2665C20.3761 30.8337 20.5827 30.3471 21.0158 30.1804L21.7992 29.871L21.0168 27.8855C21.0073 27.9085 20.9987 27.9255 20.9892 27.9484L20.768 28.4511C20.1199 29.9372 18.3917 30.6169 16.9042 29.969C15.4167 29.3211 14.7359 27.5942 15.384 26.1081L17.2756 21.7577L17.9436 20.2198L17.9282 20.2418Z" fill="white"/>
</g>
<path opacity="0.4" d="M18.1927 35.629L27.1086 32.1453C27.3233 32.0617 27.5287 31.9584 27.7188 31.8346C29.0346 30.9842 29.6097 29.3053 29.0072 27.7977L22.81 12.2269C23.4539 11.8544 24.2331 11.6846 25.0305 11.8035L38.4604 13.8061C40.313 14.0823 41.5951 15.8009 41.3208 17.6402L38.3383 37.6412C38.064 39.4806 36.3363 40.7503 34.4837 40.474L21.0538 38.4714C19.537 38.2452 18.4082 37.0607 18.1927 35.629ZM37.2433 21.1457C38.2114 20.4077 38.3765 18.9719 37.5721 18.0366C36.8366 17.215 35.588 17.1627 34.7318 17.8078L34.4039 18.0753L34.1503 17.7211C33.5136 16.8533 32.2929 16.5313 31.3788 17.1131C30.3177 17.7763 30.0567 19.1978 30.7682 20.1801L33.2271 23.5832C33.3786 23.8005 33.6903 23.847 33.9166 23.686L37.2433 21.1457Z" fill="white"/>
</g>
<defs>
<filter id="filter0_d_7_3206" x="-61.2593" y="-54.4885" width="164.583" height="168.338" filterUnits="userSpaceOnUse" color-interpolation-filters="sRGB">
<feFlood flood-opacity="0" result="BackgroundImageFix"/>
<feColorMatrix in="SourceAlpha" type="matrix" values="0 0 0 0 0 0 0 0 0 0 0 0 0 0 0 0 0 0 127 0" result="hardAlpha"/>
<feOffset dy="4"/>
<feGaussianBlur stdDeviation="34.5"/>
<feComposite in2="hardAlpha" operator="out"/>
<feColorMatrix type="matrix" values="0 0 0 0 0 0 0 0 0 0 0 0 0 0 0 0 0 0 0.04 0"/>
<feBlend mode="normal" in2="BackgroundImageFix" result="effect1_dropShadow_7_3206"/>
<feBlend mode="normal" in="SourceGraphic" in2="effect1_dropShadow_7_3206" result="shape"/>
</filter>
<linearGradient id="paint0_linear_7_3206" x1="50" y1="0" x2="0" y2="50" gradientUnits="userSpaceOnUse">
<stop stop-color="#56EAED"/>
<stop offset="1" stop-color="#299AD0"/>
</linearGradient>
<clipPath id="clip0_7_3206">
<rect width="50" height="50" fill="white"/>
</clipPath>
</defs>
</svg>
