<svg width="512" height="512" viewBox="0 0 512 512" fill="none" xmlns="http://www.w3.org/2000/svg">
<g clip-path="url(#clip0_6_14)">
<path d="M0 100L0 412C0 467.228 44.7715 512 100 512H412C467.228 512 512 467.228 512 412V100C512 44.7715 467.228 0 412 0H100C44.7715 0 0 44.7715 0 100Z" fill="url(#paint0_linear_6_14)"/>
<g filter="url(#filter0_d_6_14)">
<path d="M100.984 160.364C83.3485 167.334 74.7028 187.238 81.6742 204.921L157.295 396.533C164.275 414.155 184.19 422.86 201.886 415.899L329.689 365.515C347.325 358.545 356.031 338.65 349.06 320.967L273.44 129.355C266.459 111.733 246.474 103.08 228.839 110.05L100.984 160.364ZM183.582 207.276C186.422 200.781 193.98 197.794 200.552 200.581C207.124 203.369 216.316 207.42 216.316 207.42L260.908 226.786C276.14 233.421 283.111 251.104 276.475 266.321C269.838 281.539 252.142 288.5 236.909 281.865L231.757 279.6C231.522 279.503 231.287 279.406 231.113 279.317L239.124 299.649L247.146 296.482C251.58 294.774 256.568 296.889 258.278 301.321C259.988 305.752 257.873 310.735 253.438 312.443L221.492 325.008C217.057 326.715 212.069 324.6 210.359 320.169C208.649 315.737 210.765 310.754 215.199 309.047L223.221 305.88L215.21 285.548C215.112 285.783 215.024 285.957 214.926 286.192L212.661 291.339C206.025 306.557 188.329 313.518 173.096 306.883C157.864 300.248 150.893 282.565 157.529 267.347L176.9 222.799L183.74 207.051L183.582 207.276Z" fill="white"/>
</g>
<path opacity="0.4" d="M186.292 364.841L277.591 329.168C279.79 328.312 281.893 327.254 283.84 325.987C297.313 317.278 303.203 300.087 297.033 284.648L233.574 125.204C240.167 121.389 248.146 119.65 256.312 120.868L393.834 141.374C412.804 144.203 425.933 161.801 423.124 180.636L392.584 385.446C389.775 404.281 372.084 417.283 353.113 414.454L215.591 393.947C200.058 391.631 188.499 379.502 186.292 364.841ZM381.371 216.532C391.284 208.975 392.975 194.273 384.738 184.695C377.206 176.281 364.421 175.746 355.653 182.352L352.295 185.091L349.698 181.464C343.178 172.578 330.679 169.281 321.318 175.238C310.452 182.03 307.78 196.586 315.066 206.645L340.245 241.492C341.796 243.718 344.988 244.194 347.305 242.545L381.371 216.532Z" fill="white"/>
</g>
<defs>
<filter id="filter0_d_6_14" x="10.2607" y="42.6382" width="410.204" height="448.66" filterUnits="userSpaceOnUse" color-interpolation-filters="sRGB">
<feFlood flood-opacity="0" result="BackgroundImageFix"/>
<feColorMatrix in="SourceAlpha" type="matrix" values="0 0 0 0 0 0 0 0 0 0 0 0 0 0 0 0 0 0 127 0" result="hardAlpha"/>
<feOffset dy="4"/>
<feGaussianBlur stdDeviation="34.5"/>
<feComposite in2="hardAlpha" operator="out"/>
<feColorMatrix type="matrix" values="0 0 0 0 0 0 0 0 0 0 0 0 0 0 0 0 0 0 0.04 0"/>
<feBlend mode="normal" in2="BackgroundImageFix" result="effect1_dropShadow_6_14"/>
<feBlend mode="normal" in="SourceGraphic" in2="effect1_dropShadow_6_14" result="shape"/>
</filter>
<linearGradient id="paint0_linear_6_14" x1="512" y1="0" x2="0" y2="512" gradientUnits="userSpaceOnUse">
<stop stop-color="#56EAED"/>
<stop offset="1" stop-color="#299AD0"/>
</linearGradient>
<clipPath id="clip0_6_14">
<rect width="512" height="512" fill="white"/>
</clipPath>
</defs>
</svg>
